# xmcd CD database file
#
# Track frame offsets:
#	150
#	15753
#	31242
#	55988
#	76116
#	96021
#	98912
#	117852
#	129763
#	139205
#	151935
#	171095
#	187956
#
# Disc length: 2785 seconds
#
# Revision: 0
# Processed by: cddbd v1.5.2PL0 Copyright (c) Steve Scherf et al.
# Submitted via: CDex 1.50
#
DISCID=8f0adf0d
DTITLE=Take 6 - The Standard
DYEAR=2008
DGENRE=Jazz
TTITLE0=Sweet Georgia Brown
TTITLE1=Straighten Up and Fly Right
TTITLE2=Seven Steps to Heaven
TTITLE3=Windmills of Your Mind
TTITLE4=Someone to Watch Over Me
TTITLE5=Grace (Reprise)
TTITLE6=Back to You
TTITLE7=A Tisket, A Tasket
TTITLE8=Bein' Green
TTITLE9=Do You Know What It Means to Miss New Orleans
TTITLE10=What's Going On
TTITLE11=Shall We Gather at the River
TTITLE12=Grace
EXTD=YEAR: 2008
EXTT0=
EXTT1=
EXTT2=
EXTT3=
EXTT4=
EXTT5=
EXTT6=
EXTT7=
EXTT8=
EXTT9=
EXTT10=
EXTT11=
EXTT12=
PLAYORDER=
